<?xml version="1.0" encoding="UTF-8"?>
<svg version="1.1" xmlns="http://www.w3.org/2000/svg" width="512" height="512">
<path d="M0 0 C149.82 0 299.64 0 454 0 C454 6.57113913 453.9802643 12.84881764 453.3808918 19.34172821 C453.31395605 20.10991312 453.24702029 20.87809803 453.17805618 21.66956127 C452.95491186 24.21694242 452.72492599 26.76365626 452.49490356 29.3104248 C452.33092849 31.16565484 452.16737467 33.02092216 452.00420368 34.87622309 C451.55638054 39.95387912 451.10251057 45.03097892 450.64759851 50.10800409 C450.15737381 55.59091059 449.67273936 61.07431166 449.18734741 66.55764771 C448.23642775 77.28916723 447.28014823 88.02020258 446.32178129 98.75105935 C445.54325267 107.46870036 444.76635023 116.18648478 443.99059677 124.90437317 C442.14909099 145.59778499 440.30654795 166.29110313 438.45756721 186.98384857 C438.39850324 187.64486814 438.33943927 188.3058877 438.27858548 188.98693817 C437.97923286 192.33711046 437.67986285 195.6872812 437.38048734 199.03745145 C437.32103215 199.70278909 437.26157695 200.36812673 437.20032009 201.05362611 C437.08008751 202.39909518 436.9598538 203.74456414 436.83961896 205.090033 C434.96663142 226.04998998 433.10089329 247.01058147 431.24072266 267.97167969 C429.15024846 291.52782467 427.05401272 315.08344897 424.9494952 338.63834429 C423.83543022 351.10896256 422.72398453 363.57980149 421.61929703 376.05125427 C420.6794713 386.66082859 419.733734 397.26985506 418.78021111 407.8782075 C418.29360169 413.29384365 417.80981185 418.70969378 417.33342743 424.12623978 C416.89781721 429.07837057 416.45437346 434.02973323 416.00450979 438.98058897 C415.84265207 440.7774761 415.68373485 442.57463085 415.52795936 444.37205547 C415.31678112 446.80382538 415.09517297 449.23441927 414.87079048 451.66500092 C414.7824108 452.72658301 414.7824108 452.72658301 414.69224566 453.8096112 C414.35807053 457.30151156 413.99319104 459.01021345 412 462 C409.3659668 463.02774048 409.3659668 463.02774048 405.94921875 463.96337891 C405.32111423 464.13875089 404.69300972 464.31412287 404.04587173 464.49480915 C401.92923616 465.08285425 399.80851698 465.65453967 397.6875 466.2265625 C396.1643331 466.64633391 394.64145164 467.06714226 393.11883545 467.48890686 C389.8208658 468.40012075 386.52103981 469.30415261 383.21960449 470.20272827 C377.96404328 471.63319879 372.71267745 473.07864365 367.46191406 474.52661133 C360.92809386 476.32734077 354.39324242 478.12424202 347.85718155 479.91682148 C334.60013808 483.55339116 321.35319565 487.22575172 308.109375 490.91015625 C307.08645859 491.19469414 306.06354218 491.47923203 305.0096283 491.77239227 C300.9263514 492.9082673 296.84311637 494.04429262 292.75995636 495.18058777 C283.05071172 497.88253764 273.34046013 500.5808543 263.6296463 503.27715874 C260.27351987 504.20911467 256.9174979 505.14144581 253.56167984 506.07451153 C252.04966917 506.49377785 250.53713895 506.91117597 249.02404404 507.32651234 C245.94602952 508.17221216 242.88355265 509.03582245 239.83215332 509.97451782 C229.17366329 513.19765254 220.31309675 512.27642714 209.74609375 509.16015625 C208.10544701 508.69607864 208.10544701 508.69607864 206.43165588 508.22262573 C204.03295381 507.54227401 201.6361189 506.85531276 199.2409668 506.16256714 C195.34576457 505.03596759 191.44628728 503.92556105 187.54492188 502.82055664 C183.22682347 501.59677654 178.90901774 500.3720308 174.59286499 499.1414032 C156.07166754 493.86333972 137.50963988 488.73196424 118.95095825 483.58761597 C113.12093842 481.9713943 107.2917093 480.3523353 101.46264648 478.73266602 C100.53273171 478.47437295 99.60281694 478.21607988 98.64472294 477.94995975 C94.10669147 476.68946124 89.5689082 475.42808391 85.03163147 474.16487122 C76.99749124 471.92982058 68.95977861 469.71160145 60.90625 467.54736328 C58.86589192 466.99613058 56.82566302 466.44442211 54.78546143 465.89261055 C52.92805791 465.393173 51.06830392 464.90250264 49.20849609 464.41209412 C48.12648926 464.11956253 47.04448242 463.82703094 45.9296875 463.52563477 C44.99366699 463.2769313 44.05764648 463.02822784 43.09326172 462.77198792 C41 462 41 462 40 460 C39.70526481 457.58846137 39.46140258 455.19175312 39.25225735 452.77243137 C39.18356856 452.01533946 39.11487976 451.25824755 39.04410949 450.47821346 C38.81258214 447.91505403 38.58692366 445.35141077 38.3611908 442.78773499 C38.19568154 440.94178209 38.02981695 439.09586103 37.86362559 437.24996942 C37.4061298 432.15674325 36.95376627 427.06307204 36.50221479 421.96931589 C36.01502683 416.48348445 35.52316852 410.99807155 35.03190613 405.51260376 C34.06934124 394.75580111 33.11123329 383.99860588 32.15472763 373.24126292 C31.37715024 364.49700093 30.59804589 355.75287626 29.81784248 347.00884819 C29.70696352 345.76615793 29.59608456 344.52346766 29.48184564 343.24312012 C29.25660979 340.71881299 29.03137132 338.1945061 28.80613024 335.67019945 C27.29262583 318.70654337 25.78063645 301.74275278 24.27181149 284.77867985 C24.21276309 284.11478503 24.1537147 283.45089021 24.09287696 282.76687736 C23.61334539 277.37527254 23.1338618 271.98366345 22.65438097 266.59205412 C20.78561924 245.57879832 18.91219073 224.56596338 17.03491211 203.5534668 C14.9263859 179.9524566 12.82107016 156.35116273 10.72064787 132.74942964 C10.49655102 130.23145053 10.272449 127.71347188 10.04834175 125.1954937 C9.93807233 123.956546 9.82780291 122.7175983 9.71419198 121.44110673 C8.93706635 112.71219544 8.15762721 103.98349252 7.37727165 95.25486946 C6.42565099 84.60999655 5.47746956 73.96482404 4.53369515 63.3192525 C4.05209361 57.88791441 3.56894113 52.45672632 3.08155823 47.0259037 C2.6351544 42.05121988 2.19326473 37.07615616 1.75492472 32.10075551 C1.59581413 30.30371092 1.43507456 28.50680964 1.27251422 26.71007384 C1.05113465 24.26047072 0.83580733 21.81040438 0.62190151 19.36013889 C0.55801354 18.66925664 0.49412557 17.97837438 0.4283016 17.26655629 C-0.06881221 11.45058002 0 5.90890715 0 0 Z " fill="#1572B6" transform="translate(29,0)"/>
<path d="M0 0 C96.36 0 192.72 0 292 0 C291.31543826 11.63754955 290.5640905 23.19065153 289.43530273 34.78027344 C289.2677757 36.53443826 289.10815288 38.28937314 288.95581055 40.04492188 C288.73157132 42.62308105 288.4837616 45.19799085 288.23046875 47.7734375 C288.16675583 48.55770111 288.10304291 49.34196472 288.03739929 50.1499939 C287.47812184 55.45185437 287.47812184 55.45185437 285.43969727 57.78881836 C281.92238777 59.53497791 278.36481419 61.10910686 274.734375 62.60546875 C273.89364944 62.95759933 273.05292389 63.30972992 272.1867218 63.67253113 C270.34788588 64.44222142 268.50802022 65.20945508 266.66726685 65.97454834 C261.59988051 68.08148438 256.54069989 70.20798182 251.48046875 72.33203125 C250.40216293 72.78412964 249.32385712 73.23622803 248.21287537 73.70202637 C235.13363339 79.19156665 222.09796811 84.78250511 209.0625 90.375 C206.79850777 91.34530828 204.53451048 92.31560475 202.27050781 93.28588867 C185.49523765 100.48221688 168.74903136 107.74208641 152 115 C215.855 115.495 215.855 115.495 281 116 C281 129.49778081 281 129.49778081 280.46850586 135.20532227 C280.35070267 136.50111206 280.23289948 137.79690186 280.11152649 139.13195801 C279.9793277 140.52677682 279.84709912 141.9215928 279.71484375 143.31640625 C279.57641218 144.82209327 279.43854553 146.32783231 279.30119324 147.83361816 C279.00615613 151.05895563 278.70809113 154.28399206 278.40753174 157.50881958 C277.59862984 166.19219643 276.80938323 174.87737335 276.01953125 183.5625 C275.93729561 184.4648897 275.85505997 185.3672794 275.77033234 186.29701424 C274.46151201 200.67258352 273.21609416 215.05281852 272.01171875 229.4375 C271.93172827 230.39220625 271.85173779 231.3469125 271.76932335 232.33054924 C270.98822873 241.66046837 270.21287675 250.99085334 269.44362736 260.32175636 C269.15882653 263.77014227 268.87187239 267.21834693 268.58449745 270.66651917 C268.38804827 273.03454355 268.19484529 275.40281795 268.00175476 277.77111816 C267.88302037 279.19776868 267.76411877 280.62440529 267.64501953 282.05102539 C267.49348923 283.89320396 267.49348923 283.89320396 267.33889771 285.77259827 C267.04477591 288.57358863 266.61122949 291.25332223 266 294 C262.19670414 295.12530288 258.39329256 296.25021419 254.58984375 297.375 C252.78101212 297.90996346 252.78101212 297.90996346 250.93563843 298.45573425 C244.17938015 300.45333077 237.42199881 302.44704725 230.6628418 304.43481445 C228.5520866 305.05570367 226.44134289 305.67663189 224.33061028 306.29759789 C222.90056989 306.71830154 221.4705122 307.13894641 220.0404377 307.55953407 C210.99400802 310.22093821 201.95583871 312.90791401 192.92692566 315.62814331 C187.91644313 317.13706417 182.90088616 318.62889028 177.88504028 320.11987305 C175.51580214 320.82790215 173.14847428 321.54235729 170.78317261 322.26342773 C167.48128489 323.26917464 164.1733888 324.25217352 160.86328125 325.23046875 C159.42642471 325.67751411 159.42642471 325.67751411 157.96054077 326.1335907 C148.96713215 328.7447303 141.57794808 327.88664094 132.8125 324.6875 C127.83135405 322.92613745 122.87338304 321.37788853 117.75 320.0625 C112.14158829 318.61104769 106.6370813 316.9679971 101.125 315.1875 C93.63142031 312.77158347 86.08992594 310.59270037 78.5 308.5 C70.12896857 306.19193261 61.83193631 303.73799985 53.56982422 301.06738281 C47.46535162 299.10746284 41.31664565 297.43037163 35.1015625 295.859375 C32.28929222 295.08015654 29.69531221 294.10597397 27 293 C26.0848713 282.13431793 25.17197914 271.26845049 24.26194 260.40234089 C23.8393005 255.35675714 23.41589153 250.31124043 22.99072266 245.26586914 C22.58042414 240.39662204 22.1721487 235.52720915 21.76527405 230.65767479 C21.60970566 228.80009097 21.45340901 226.942568 21.29637146 225.0851078 C21.07651075 222.48308412 20.85924267 219.88085595 20.64257812 217.27856445 C20.57712296 216.5110788 20.51166779 215.74359314 20.44422913 214.95285034 C20.14064079 211.27436261 20 207.69855908 20 204 C39.47 204 58.94 204 79 204 C80.31079813 207.93239439 80.44182957 211.83098215 80.71875 215.9375 C80.81295227 217.2522229 80.81295227 217.2522229 80.90905762 218.59350586 C81.177724 222.34481665 81.43729544 226.09674467 81.69775391 229.84863281 C81.88913255 232.58681951 82.08507833 235.32465321 82.28125 238.0625 C82.338573 238.91255615 82.395896 239.7626123 82.45495605 240.63842773 C82.6917073 243.9374866 82.94946888 246.84840664 84 250 C86.5364924 250.84800923 88.92879188 251.48491593 91.53125 252.05078125 C92.70536438 252.32271553 92.70536438 252.32271553 93.90319824 252.60014343 C96.43282701 253.18325166 98.96609187 253.74830952 101.5 254.3125 C103.93008332 254.86614358 106.35925154 255.42350132 108.78770447 255.98425293 C110.47839415 256.36837408 112.17188852 256.74031615 113.86769104 257.10119629 C118.59239263 258.12406899 123.11327203 259.33975843 127.67944336 260.93359375 C146.18029414 267.02404258 160.55853699 262.81179105 178.38458252 257.06787109 C182.06615206 255.89663613 185.76918609 254.79761446 189.47070312 253.69140625 C196.66931448 251.52900514 203.84114351 249.2910157 211 247 C216.99618615 223.01525539 214.58956323 197.6826435 216 173 C150 173 84 173 16 173 C14.78073915 169.34221745 14.54752236 165.7736291 14.24609375 161.95703125 C14.18092056 161.15577316 14.11574738 160.35451508 14.04859924 159.52897644 C13.91137945 157.82521986 13.77617539 156.12129992 13.64282227 154.41723633 C13.44177177 151.86669206 13.23010761 149.31718794 13.01757812 146.76757812 C12.18756656 136.48317498 11.81398333 126.31898261 12 116 C25.89880581 109.84459851 39.89134248 103.93409993 53.9375 98.125 C54.79504883 97.77033661 55.65259766 97.41567322 56.53613281 97.05026245 C60.14597413 95.55755534 63.75590393 94.06506248 67.3659668 92.57289124 C77.53993233 88.36618273 87.70466259 84.13734927 97.86746216 79.90374756 C100.82078977 78.67361273 103.77452153 77.44445231 106.72827148 76.21533203 C121.17549322 70.19674415 135.5855666 64.09841413 150 58 C102.48 57.67 54.96 57.34 6 57 C0 12.6 0 12.6 0 0 Z " fill="#FEFEFD" transform="translate(109,92)"/>
<path d="M0 0 C63.36 0 126.72 0 192 0 C190.84230317 16.7866041 189.67502702 33.4761238 187.99853516 50.203125 C187.44000249 55.78669798 186.89838754 61.37192197 186.35546875 66.95703125 C186.18656631 68.69154037 186.18656631 68.69154037 186.01425171 70.46109009 C183.46747507 96.71242748 181.12842362 122.98861627 178.98730469 149.27612305 C175.1618329 196.20932482 170.91092775 243.10422442 166.67952824 290.00225484 C165.84320631 299.27369064 165.00976395 308.54538368 164.1769712 317.81713706 C163.2661435 327.95683229 162.35325587 338.09634107 161.43946075 348.23576927 C161.05441877 352.50865726 160.67011572 356.78161073 160.28643036 361.05462074 C159.83823955 366.04508501 159.38825135 371.035384 158.93686676 376.02556038 C158.77216323 377.84964085 158.60808094 379.67377753 158.44467163 381.4979744 C158.22146687 383.98853735 157.99599567 386.47888524 157.7699585 388.9691925 C157.70624487 389.68606509 157.64253124 390.40293768 157.57688689 391.14153367 C157.18240717 395.4546807 156.64523035 399.71908694 156 404 C145.29744036 407.30757496 134.47987158 410.21905729 123.6796875 413.1875 C115.05310509 415.56477305 106.45843661 418.03358337 97.875 420.5625 C89.94669302 422.8963605 82.01766679 425.03099962 73.984375 426.97265625 C68.40279078 428.36805231 62.92078882 430.1061236 57.42089844 431.78930664 C51.03340225 433.72919928 44.62255233 435.36687878 38.1328125 436.93359375 C32.53363543 438.33270419 27.02757761 440.06322207 21.52734375 441.80664062 C14.3640617 444.02952266 7.44542997 445.40455072 0 447 C0 427.53 0 408.06 0 388 C18.13280455 382.66113515 36.26642396 377.3250776 54.40220642 371.99633789 C61.56309672 369.89224247 68.72376188 367.7874008 75.88330078 365.67871094 C81.57896738 364.00122041 87.27568279 362.32734983 92.97338867 360.65679932 C95.02849511 360.05352902 97.08318536 359.44883906 99.13745117 358.8427124 C101.95643871 358.01119544 104.77683063 357.18463109 107.59765625 356.359375 C108.41629654 356.11661835 109.23493683 355.87386169 110.0783844 355.62374878 C113.14600785 354.73094369 115.78723915 354 119 354 C119.04062057 353.38581711 119.08124115 352.77163422 119.12309265 352.13883972 C120.63974623 329.49680947 122.59126965 306.89545376 124.55438232 284.28857422 C124.976096 279.42625239 125.39508978 274.56369698 125.81445312 269.70117188 C128.51376089 238.46484455 131.26027637 207.23284934 134 176 C90.44 176 46.88 176 2 176 C4.48369484 174.34420344 6.63692918 173.2026466 9.34887695 172.02661133 C10.68180283 171.44617821 10.68180283 171.44617821 12.04165649 170.85401917 C13.01404266 170.43426315 13.98642883 170.01450714 14.98828125 169.58203125 C16.01400238 169.1366954 17.03972351 168.69135956 18.0965271 168.23252869 C21.50047168 166.75597877 24.90639536 165.28405959 28.3125 163.8125 C30.69183442 162.78227568 33.07114726 161.75200152 35.45043945 160.72167969 C56.76945443 151.49876602 78.13284587 142.38012399 99.51171875 133.296875 C100.5237587 132.86678635 101.53579865 132.43669769 102.57850647 131.99357605 C107.5367974 129.88827242 112.49745881 127.78884579 117.46335506 125.70153427 C119.29826619 124.93021547 121.13275573 124.15789402 122.96723938 123.38555908 C125.29593804 122.40555769 127.62548929 121.42757925 129.95597839 120.45184326 C130.99506851 120.01430725 132.03415863 119.57677124 133.10473633 119.12597656 C134.02764969 118.73879456 134.95056305 118.35161255 135.90144348 117.95269775 C137.9430116 117.17417644 137.9430116 117.17417644 139 116 C140.98 97.52 142.96 79.04 145 60 C48.64 60 -47.72 60 -147 60 C-147.33 61.32 -147.66 62.64 -148 64 C-148 62.35 -148 60.7 -148 59 C-99.16 59 -50.32 59 0 59 C0 39.53 0 20.06 0 0 Z " fill="#35A8DA" transform="translate(256,32)"/>
<path d="M0 0 C44.22 0 88.44 0 134 0 C134 12.37282349 134 12.37282349 133.46850586 18.09179688 C133.35070267 19.3876622 133.23289948 20.68352753 133.11152649 22.0186615 C132.97932035 23.41869302 132.84709203 24.81872245 132.71484375 26.21875 C132.57645341 27.72587009 132.4385852 29.2330382 132.30119324 30.74024963 C132.00589191 33.97153735 131.70784028 37.20255394 131.40753174 40.43338013 C130.59954701 49.13027099 129.80950599 57.82880162 129.01953125 66.52734375 C128.89617779 67.88316968 128.89617779 67.88316968 128.77033234 69.26638603 C127.46275125 83.65356394 126.21720042 98.04532839 125.01171875 112.44140625 C124.89173303 113.87329096 124.89173303 113.87329096 124.76932335 115.33410263 C123.98822848 124.6627429 123.21277445 133.99184034 122.44362736 143.32147312 C122.15882463 146.76993229 121.87186996 150.21821035 121.58449745 153.66645622 C121.38805118 156.0345069 121.19484756 158.40280734 121.00175476 160.77113342 C120.88302043 162.19777886 120.76411883 163.62441038 120.64501953 165.05102539 C120.54399933 166.27914444 120.44297913 167.50726349 120.33889771 168.77259827 C120.04477591 171.57358863 119.61122949 174.25332223 119 177 C115.19670414 178.12530288 111.39329256 179.25021419 107.58984375 180.375 C105.78101212 180.90996346 105.78101212 180.90996346 103.93563843 181.45573425 C97.17938015 183.45333077 90.42199881 185.44704725 83.6628418 187.43481445 C81.5520866 188.05570367 79.44134289 188.67663189 77.33061028 189.29759789 C75.90056989 189.71830154 74.4705122 190.13894641 73.0404377 190.55953407 C63.99400802 193.22093821 54.95583871 195.90791401 45.92692566 198.62814331 C40.91644313 200.13706417 35.90088616 201.62889028 30.88504028 203.11987305 C28.51580214 203.82790215 26.14847428 204.54235729 23.78317261 205.26342773 C20.48128489 206.26917464 17.1733888 207.25217352 13.86328125 208.23046875 C12.90537689 208.52849899 11.94747253 208.82652924 10.96054077 209.1335907 C1.96713215 211.7447303 -5.42205192 210.88664094 -14.1875 207.6875 C-19.16864595 205.92613745 -24.12661696 204.37788853 -29.25 203.0625 C-34.85841171 201.61104769 -40.3629187 199.9679971 -45.875 198.1875 C-53.36857969 195.77158347 -60.91007406 193.59270037 -68.5 191.5 C-76.87103143 189.19193261 -85.16806369 186.73799985 -93.43017578 184.06738281 C-99.53464838 182.10746284 -105.68335435 180.43037163 -111.8984375 178.859375 C-114.71070778 178.08015654 -117.30468779 177.10597397 -120 176 C-120.9151287 165.13431793 -121.82802086 154.26845049 -122.73806 143.40234089 C-123.1606995 138.35675714 -123.58410847 133.31124043 -124.00927734 128.26586914 C-124.41957586 123.39662204 -124.8278513 118.52720915 -125.23472595 113.65767479 C-125.39029434 111.80009097 -125.54659099 109.942568 -125.70362854 108.0851078 C-125.92348925 105.48308412 -126.14075733 102.88085595 -126.35742188 100.27856445 C-126.42287704 99.5110788 -126.48833221 98.74359314 -126.55577087 97.95285034 C-126.85935921 94.27436261 -127 90.69855908 -127 87 C-107.53 87 -88.06 87 -68 87 C-66.68920187 90.93239439 -66.55817043 94.83098215 -66.28125 98.9375 C-66.21844849 99.81398193 -66.15564697 100.69046387 -66.09094238 101.59350586 C-65.822276 105.34481665 -65.56270456 109.09674467 -65.30224609 112.84863281 C-65.11086745 115.58681951 -64.91492167 118.32465321 -64.71875 121.0625 C-64.661427 121.91255615 -64.604104 122.7626123 -64.54504395 123.63842773 C-64.3082927 126.9374866 -64.05053112 129.84840664 -63 133 C-60.4635076 133.84800923 -58.07120812 134.48491593 -55.46875 135.05078125 C-54.29463562 135.32271553 -54.29463562 135.32271553 -53.09680176 135.60014343 C-50.56717299 136.18325166 -48.03390813 136.74830952 -45.5 137.3125 C-43.06991668 137.86614358 -40.64074846 138.42350132 -38.21229553 138.98425293 C-36.52160585 139.36837408 -34.82811148 139.74031615 -33.13230896 140.10119629 C-28.40760737 141.12406899 -23.88672797 142.33975843 -19.32055664 143.93359375 C-0.81970586 150.02404258 13.55853699 145.81179105 31.38458252 140.06787109 C35.06615206 138.89663613 38.76918609 137.79761446 42.47070312 136.69140625 C49.66931448 134.52900514 56.84114351 132.2910157 64 130 C65.08097395 126.38872781 65.27137317 122.8747263 65.48071289 119.12011719 C65.53945335 118.09511612 65.53945335 118.09511612 65.59938049 117.04940796 C65.72745347 114.79875269 65.85008209 112.54783587 65.97265625 110.296875 C66.06057234 108.73315573 66.14882877 107.16945557 66.2374115 105.60577393 C66.46931252 101.49603414 66.69659351 97.38605142 66.9229126 93.27600098 C67.19559431 88.3414993 67.47401441 83.40731847 67.75147247 78.4730835 C68.17204446 70.98229224 68.58532619 63.49113058 69 56 C46.23 56 23.46 56 0 56 C0 37.52 0 19.04 0 0 Z " fill="#FEFEFD" transform="translate(256,209)"/>
<path d="M0 0 C0.33 18.15 0.66 36.3 1 55 C44.89 55.33 88.78 55.66 134 56 C134 56.33 134 56.66 134 57 C89.78 57 45.56 57 0 57 C0 75.48 0 93.96 0 113 C-43.23 113 -86.46 113 -131 113 C-132.21926085 109.34221745 -132.45247764 105.7736291 -132.75390625 101.95703125 C-132.81907944 101.15577316 -132.88425262 100.35451508 -132.95140076 99.52897644 C-133.08862055 97.82521986 -133.22382461 96.12129992 -133.35717773 94.41723633 C-133.55822823 91.86669206 -133.76989239 89.31718794 -133.98242188 86.76757812 C-134.81243344 76.48317498 -135.18601667 66.31898261 -135 56 C-116.67749455 47.88546277 -98.17053499 40.23482751 -79.65216064 32.58195496 C-72.5807261 29.65795493 -65.51563169 26.71893055 -58.453125 23.7734375 C-57.39874741 23.33371613 -56.34436981 22.89399475 -55.25804138 22.44094849 C-51.11577268 20.71310249 -46.97366315 18.98487713 -42.83206177 17.25543213 C-32.11129726 12.77890594 -21.38365299 8.31964043 -10.63671875 3.90625 C-9.20728691 3.31728943 -9.20728691 3.31728943 -7.74897766 2.71643066 C-6.87750595 2.3594812 -6.00603424 2.00253174 -5.1081543 1.63476562 C-4.3369072 1.31817993 -3.5656601 1.00159424 -2.77104187 0.67541504 C-1 0 -1 0 0 0 Z " fill="#E6E7E7" transform="translate(256,152)"/>
<path d="M0 0 C19.47 0 38.94 0 59 0 C60.31079813 3.93239439 60.44182957 7.83098215 60.71875 11.9375 C60.78155151 12.81398193 60.84435303 13.69046387 60.90905762 14.59350586 C61.177724 18.34481665 61.43729544 22.09674467 61.69775391 25.84863281 C61.88913255 28.58681951 62.08507833 31.32465321 62.28125 34.0625 C62.338573 34.91255615 62.395896 35.7626123 62.45495605 36.63842773 C62.6917073 39.9374866 62.94946888 42.84840664 64 46 C66.54792606 46.84763492 68.95287958 47.48499677 71.56640625 48.05078125 C72.34449646 48.23025803 73.12258667 48.4097348 73.92425537 48.59465027 C76.46782465 49.17895605 79.0150311 49.74546343 81.5625 50.3125 C83.2994234 50.70940399 85.03599627 51.10784504 86.7722168 51.5078125 C90.23196736 52.30449315 93.69274301 53.09644835 97.15429688 53.88525391 C103.55849853 55.35116806 109.93864954 56.9071633 116.3125 58.5 C117.30000244 58.74274658 118.28750488 58.98549316 119.30493164 59.2355957 C120.19043701 59.45691162 121.07594238 59.67822754 121.98828125 59.90625 C122.74665283 60.09509766 123.50502441 60.28394531 124.28637695 60.47851562 C126 61 126 61 127 62 C127.09396057 63.93306498 127.11743517 65.86958838 127.11352539 67.80493164 C127.11341209 69.66674828 127.11341209 69.66674828 127.11329651 71.56617737 C127.10818911 72.9308374 127.1029731 74.29549702 127.09765625 75.66015625 C127.095792 77.04878183 127.09436813 78.43740807 127.09336853 79.82603455 C127.08954387 83.48721115 127.07971403 87.1483483 127.06866455 90.80950928 C127.05844932 94.54292263 127.05387067 98.27634234 127.04882812 102.00976562 C127.03809171 109.33986177 127.02101591 116.66992536 127 124 C125.4268129 123.69517977 123.85416342 123.38758421 122.28173828 123.07885742 C121.40591095 122.90787033 120.53008362 122.73688324 119.62771606 122.56071472 C115.63586293 121.70891386 111.7690875 120.52647734 107.875 119.3125 C106.1174625 118.77514141 104.35963711 118.23872373 102.6015625 117.703125 C101.68793945 117.42404297 100.77431641 117.14496094 99.83300781 116.85742188 C94.9826227 115.38943217 90.11633352 113.97654658 85.25 112.5625 C83.75545288 112.12744141 83.75545288 112.12744141 82.23071289 111.68359375 C78.0892715 110.47842468 73.9473006 109.27508347 69.80517578 108.07226562 C48.91130773 102.00353366 48.91130773 102.00353366 39.625 99.1015625 C33.20764078 97.15145981 26.75803803 95.30871819 20.31054688 93.4609375 C19.31087891 93.1721875 18.31121094 92.8834375 17.28125 92.5859375 C16.38470703 92.3286084 15.48816406 92.0712793 14.56445312 91.80615234 C11.98106277 90.99404696 9.50817549 90.0179853 7 89 C6.0848713 78.13431793 5.17197914 67.26845049 4.26194 56.40234089 C3.8393005 51.35675714 3.41589153 46.31124043 2.99072266 41.26586914 C2.58042414 36.39662204 2.1721487 31.52720915 1.76527405 26.65767479 C1.60970566 24.80009097 1.45340901 22.942568 1.29637146 21.0851078 C1.07651075 18.48308412 0.85924267 15.88085595 0.64257812 13.27856445 C0.57712296 12.5110788 0.51166779 11.74359314 0.44422913 10.95285034 C0.14064079 7.27436261 0 3.69855908 0 0 Z " fill="#E7E8E7" transform="translate(129,296)"/>
<path d="M0 0 C48.51 0 97.02 0 147 0 C147 18.81 147 37.62 147 57 C100.47 57 53.94 57 6 57 C0 12.6 0 12.6 0 0 Z " fill="#E8E8E7" transform="translate(109,92)"/>
<path d="M0 0 C22.77 0 45.54 0 69 0 C69 10.09499641 68.97902507 20.02652725 68.4140625 30.078125 C68.35221771 31.21860291 68.29037292 32.35908081 68.22665405 33.53411865 C68.09626205 35.90683356 67.96341428 38.27941476 67.828125 40.65185547 C67.62305991 44.28436672 67.4323625 47.91746348 67.2421875 51.55078125 C67.11284633 53.87244431 66.98266897 56.19406096 66.8515625 58.515625 C66.79626373 59.59579895 66.74096497 60.6759729 66.68399048 61.78887939 C66.62407928 62.79473083 66.56416809 63.80058228 66.50244141 64.83691406 C66.45358795 65.71607483 66.4047345 66.5952356 66.35440063 67.5010376 C65.94471804 70.38980615 65.45673182 72.45626345 64 75 C61.50857544 76.24665833 61.50857544 76.24665833 58.32861328 77.12817383 C57.14042999 77.46814896 55.9522467 77.80812408 54.72805786 78.15840149 C53.42563437 78.50853409 52.12304838 78.85806275 50.8203125 79.20703125 C49.48707853 79.57938565 48.15430938 79.95340807 46.82199097 80.32902527 C44.02929547 81.11193563 41.23338283 81.88143162 38.43408203 82.64038086 C34.84900057 83.61245468 31.27055727 84.60659882 27.69398689 85.60948658 C24.27978985 86.5660077 20.86275319 87.51217607 17.4453125 88.45703125 C16.79462925 88.63769449 16.143946 88.81835773 15.47354507 89.00449562 C13.62730788 89.51491281 11.77878469 90.01703934 9.93017578 90.51879883 C8.87919708 90.80572098 7.82821838 91.09264313 6.74539185 91.38825989 C4 92 4 92 0 92 C0 61.64 0 31.28 0 0 Z " fill="#35A8DB" transform="translate(256,265)"/>
</svg>
