<?xml version="1.0" encoding="UTF-8"?>
<svg version="1.1" xmlns="http://www.w3.org/2000/svg" width="1416" height="1416">
<path d="M0 0 C1.10110107 0.61955566 2.20220215 1.23911133 3.33666992 1.87744141 C11.71419721 6.60635319 20.03359357 11.4307681 28.33227539 16.29638672 C36.00435604 20.7916443 43.71264463 25.22127914 51.4375 29.625 C65.91228065 37.87866772 80.34472179 46.20467565 94.77148438 54.54199219 C97.99318275 56.40352672 101.21521079 58.26448839 104.4375 60.125 C105.50355469 60.74052734 106.56960938 61.35605469 107.66796875 61.99023438 C116.25245597 66.94203042 124.85830293 71.85574868 133.46722412 76.76486206 C142.49553114 81.91499991 151.48528843 87.12809298 160.45410156 92.38110352 C169.57987389 97.71765677 178.75837011 102.96016695 187.94921875 108.18359375 C191.15823613 110.01038013 194.36241303 111.84511884 197.5625 113.6875 C198.52510742 114.24115234 199.48771484 114.79480469 200.47949219 115.36523438 C201.36540039 115.88408203 202.25130859 116.40292969 203.1640625 116.9375 C203.93314941 117.38609375 204.70223633 117.8346875 205.49462891 118.296875 C211.00145053 122.00016378 213.79721651 126.36037491 215.5625 132.6875 C215.74739152 135.40564333 215.83769678 138.01899398 215.82421303 140.73471642 C215.82820909 141.53179837 215.83220515 142.32888032 215.83632231 143.15011626 C215.84730583 145.82551266 215.84409398 148.50070255 215.8409729 151.17611694 C215.84597523 153.11170423 215.85185084 155.04728941 215.85852563 156.98287165 C215.87434722 162.30526277 215.87775751 167.62760113 215.87917423 172.95001292 C215.8828645 178.68821772 215.89801812 184.42639344 215.91178894 190.1645813 C215.93407731 200.10757519 215.94908112 210.05055876 215.95915604 219.99357224 C215.97373323 234.36954931 215.99926737 248.74549044 216.02748732 263.12144645 C216.07297276 286.44472432 216.10959739 309.76800733 216.140625 333.09130859 C216.17078892 355.74952096 216.20512744 378.40772072 216.24511719 401.06591797 C216.24634819 401.76434698 216.24757919 402.46277599 216.2488475 403.18236951 C216.26121436 410.1962831 216.27366608 417.21019653 216.28617998 424.22410985 C216.39111794 483.04522158 216.48173789 541.86635018 216.5625 600.6875 C220.30998914 598.54765121 224.05728232 596.40745971 227.80441284 594.26698303 C229.07271342 593.54254944 230.34106275 592.8182012 231.60946655 592.09394836 C244.61758682 584.66621945 257.59308371 577.18260698 270.5625 569.6875 C284.51094368 561.62660696 298.47253888 553.59040574 312.46722412 545.61013794 C321.50208567 540.4562611 330.49775744 535.23836227 339.47387695 529.98291016 C348.33335322 524.80343361 357.23989972 519.70808505 366.15820312 514.63085938 C368.31353219 513.40310767 370.45639081 512.15316464 372.5852108 510.88000202 C375.42952812 509.2364131 378.29687819 507.94433358 381.33942604 506.70949841 C390.50122891 502.80022032 390.50122891 502.80022032 396.64832449 495.36989236 C398.39085653 488.41590997 397.95021767 481.27500386 397.73193359 474.16723633 C397.72824755 471.77468216 397.73301274 469.38210235 397.74555969 466.98957825 C397.75524616 461.18341894 397.6785829 455.38306739 397.56430946 449.5781341 C397.43640359 442.81127574 397.42116376 436.04553621 397.41354926 429.2776434 C397.39745384 417.20041602 397.30044568 405.12530441 397.1484375 393.04907227 C397.00134938 381.34442968 396.87988167 369.64013577 396.80175781 357.93481445 C396.79692605 357.21340072 396.79209428 356.49198698 396.7871161 355.74871222 C396.73512986 347.86786121 396.69107512 339.98698504 396.6537571 332.10605145 C396.64879223 331.06633005 396.64879223 331.06633005 396.64372707 330.00560417 C396.61700399 324.39338381 396.61700399 324.39338381 396.60498853 321.6915985 C396.56565078 312.93219282 396.49095411 304.17417662 396.37837005 295.41540301 C396.31729362 290.39472054 396.27573379 285.3739938 396.23813438 280.35308647 C396.21604451 278.02618905 396.18515963 275.69935587 396.144804 273.37270355 C396.0905448 270.19444034 396.06724257 267.01735133 396.05111694 263.83869934 C396.01566664 262.46082134 396.01566664 262.46082134 395.97950017 261.05510741 C395.99222591 254.70396618 397.57532858 250.64182267 401.5625 245.6875 C407.29174409 240.18830204 415.06973877 236.65077177 422.00317383 232.85839844 C428.38077232 229.36929136 434.66783531 225.74162418 440.9375 222.0625 C449.73990814 216.90349144 458.57375068 211.80273135 467.4375 206.75 C476.49340054 201.58696504 485.53719385 196.40392352 494.5625 191.1875 C503.58780846 185.97107514 512.63177803 180.78835025 521.6875 175.625 C530.33945859 170.69153266 538.96727505 165.71930587 547.5625 160.6875 C556.15772656 155.65569319 564.78561164 150.68359245 573.4375 145.75 C582.82514581 140.39673717 592.20244566 135.02638729 601.5625 129.625 C602.59358887 129.03017822 603.62467773 128.43535645 604.68701172 127.82250977 C605.67717285 127.25072998 606.66733398 126.6789502 607.6875 126.08984375 C608.64785156 125.53538574 609.60820313 124.98092773 610.59765625 124.40966797 C612.69327476 123.19240076 614.78396336 121.96662751 616.87109375 120.73486328 C617.94488281 120.10177246 619.01867188 119.46868164 620.125 118.81640625 C621.09566406 118.24092041 622.06632812 117.66543457 623.06640625 117.07250977 C628.19510611 114.2267435 632.82506877 113.82347469 638.5625 114.6875 C643.51253452 116.49832705 648.00557589 119.06960782 652.5625 121.6875 C653.40586914 122.17057617 654.24923828 122.65365234 655.11816406 123.15136719 C661.21020489 126.65681915 667.26858237 130.21828659 673.32421875 133.78613281 C678.63767326 136.90594462 683.97414426 139.98554795 689.3125 143.0625 C690.38516113 143.68116943 691.45782227 144.29983887 692.56298828 144.93725586 C701.18362222 149.90420018 709.82405029 154.83606777 718.4666748 159.7645874 C727.50685523 164.92147645 736.50757624 170.14283409 745.48925781 175.40087891 C753.11155778 179.85666344 760.76781311 184.25147146 768.4375 188.625 C782.91200369 196.87915636 797.34471846 205.20467372 811.77148438 213.54199219 C813.91780569 214.78216143 816.06437252 216.02190584 818.21118164 217.26123047 C820.35207099 218.49797275 822.49189394 219.736563 824.63061523 220.97705078 C829.80987839 223.97505563 835.00187608 226.94386365 840.24047852 229.83677673 C842.7960703 231.24902974 845.34548488 232.67225438 847.89483643 234.09573364 C849.11217209 234.77112565 850.33259749 235.44098458 851.55633545 236.10470581 C867.60389803 244.81169409 867.60389803 244.81169409 870.5625 253.6875 C870.65558842 255.16048108 870.69337077 256.63730821 870.69672108 258.11322403 C870.70340784 259.47945778 870.70340784 259.47945778 870.71022969 260.87329221 C870.70995315 262.37632842 870.70995315 262.37632842 870.70967102 263.909729 C870.71334771 264.97316048 870.7170244 266.03659196 870.7208125 267.13224864 C870.73186967 270.7134961 870.73569662 274.29471457 870.73950195 277.87597656 C870.74576501 280.43645826 870.75241167 282.99693904 870.75941467 285.55741882 C870.77865584 293.25370778 870.78924455 300.94999165 870.79814246 308.64629853 C870.80252578 312.27055518 870.80789246 315.89481036 870.81313133 319.51906586 C870.83014281 331.56661806 870.84463723 343.61416935 870.85188007 355.66173172 C870.85378997 358.78799694 870.8557103 361.91426215 870.85766602 365.04052734 C870.85814976 365.81754512 870.8586335 366.5945629 870.8591319 367.39512667 C870.86743316 379.98381275 870.89277204 392.57240384 870.92524669 405.16104844 C870.95831492 418.08513096 870.9763286 431.00916519 870.97952431 443.93329024 C870.98168958 451.18990326 870.99044055 458.44637773 871.01598549 465.70294952 C871.0399582 472.52865617 871.04351965 479.3541096 871.03322411 486.17984962 C871.03272742 488.68605948 871.03908662 491.19228141 871.05278015 493.6984539 C871.07042191 497.11838246 871.06343 500.53740788 871.05024719 503.95733643 C871.06121644 504.95043768 871.07218568 505.94353894 871.08348733 506.96673417 C871.02652807 513.0819395 870.13634382 516.68109787 866.5625 521.6875 C863.3033797 524.71992779 859.73053448 526.86808968 855.86328125 529.05078125 C854.19362305 529.99824219 854.19362305 529.99824219 852.49023438 530.96484375 C851.90201904 531.29597168 851.31380371 531.62709961 850.70776367 531.96826172 C848.19393941 533.3833971 845.68555265 534.80805205 843.17672729 536.23202515 C841.87909948 536.96838741 840.58118436 537.7042436 839.2829895 538.43960571 C833.02246718 541.9870811 826.79064853 545.58352547 820.5625 549.1875 C811.53748526 554.40443066 802.49321957 559.58665112 793.4375 564.75 C784.78554141 569.68346734 776.15772495 574.65569413 767.5625 579.6875 C758.96727328 584.7193069 750.3393787 589.69139072 741.6875 594.625 C728.28620004 602.2671567 714.91996976 609.96895606 701.5625 617.6875 C693.93784 622.09216174 686.31123196 626.49340463 678.68115234 630.88867188 C675.5625025 632.68749856 672.44717938 634.49199259 669.33203125 636.296875 C667.40897477 637.40645904 665.48580359 638.51584434 663.5625 639.625 C662.23545044 640.39686646 662.23545044 640.39686646 660.8815918 641.18432617 C660.0750415 641.64814697 659.26849121 642.11196777 658.4375 642.58984375 C657.38175781 643.20073853 657.38175781 643.20073853 656.3046875 643.82397461 C654.5625 644.6875 654.5625 644.6875 652.5625 644.6875 C652.56526538 645.9334044 652.56803076 647.1793088 652.57087994 648.46296787 C652.63586162 678.04207755 652.68532562 707.621171 652.71569599 737.20033437 C652.71944808 740.84148281 652.72333105 744.48263109 652.72729492 748.1237793 C652.72808185 748.84866251 652.72886878 749.57354573 652.72967956 750.3203951 C652.74273141 762.05566835 652.76638403 773.79089749 652.79395839 785.52614457 C652.82201876 797.56871777 652.83867759 809.61126788 652.84476548 821.65387243 C652.84851148 828.41755009 652.85751692 835.18113577 652.87969017 841.94478035 C652.90004056 848.30995602 652.90633665 854.67499035 652.90182304 861.04019547 C652.90264888 863.37708364 652.90862302 865.71397651 652.92011642 868.05083656 C652.93503754 871.2408978 652.93145464 874.43042511 652.92326355 877.62049866 C652.93200207 878.5456092 652.9407406 879.47071975 652.94974393 880.42386395 C652.90227634 887.26133859 651.8183892 892.04990366 647.25390625 897.38671875 C644.44912338 899.78442137 641.68511245 901.6360069 638.5 903.5 C637.87279053 903.86907471 637.24558105 904.23814941 636.59936523 904.6184082 C628.58968225 909.30580349 620.5114624 913.87755474 612.44702148 918.4699707 C604.79196731 922.8305999 597.16443542 927.23465466 589.5625 931.6875 C580.96741183 936.71954127 572.33937634 941.69139206 563.6875 946.625 C554.59170013 951.81192426 545.50537737 957.01431506 536.4375 962.25 C535.37144531 962.86552734 534.30539062 963.48105469 533.20703125 964.11523438 C529.99192477 965.97220194 526.77714622 967.82973579 523.5625 969.6875 C509.61405632 977.74839304 495.65246112 985.78459426 481.65777588 993.76486206 C473.59986788 998.36144223 465.56832214 1003.0007416 457.5625 1007.6875 C448.96727328 1012.7193069 440.3393787 1017.69139072 431.6875 1022.625 C422.59170013 1027.81192426 413.50537737 1033.01431506 404.4375 1038.25 C403.37144531 1038.86552734 402.30539062 1039.48105469 401.20703125 1040.11523438 C397.99192477 1041.97220194 394.77714622 1043.82973579 391.5625 1045.6875 C377.61405632 1053.74839304 363.65246112 1061.78459426 349.65777588 1069.76486206 C341.59986788 1074.36144223 333.56832214 1079.0007416 325.5625 1083.6875 C316.96727328 1088.7193069 308.3393787 1093.69139072 299.6875 1098.625 C290.59170013 1103.81192426 281.50537737 1109.01431506 272.4375 1114.25 C271.37144531 1114.86552734 270.30539062 1115.48105469 269.20703125 1116.11523438 C265.99192477 1117.97220194 262.77714622 1119.82973579 259.5625 1121.6875 C252.04420698 1126.03236867 244.52434557 1130.37447472 236.99951172 1134.70800781 C234.59186448 1136.09465391 232.18464077 1137.48201775 229.77783203 1138.87011719 C226.56054131 1140.72514553 223.34111192 1142.57641565 220.12030029 1144.42532349 C218.88547302 1145.13485654 217.65128747 1145.84550773 216.41778564 1146.55734253 C214.70087869 1147.54783412 212.98134854 1148.53377444 211.26171875 1149.51953125 C210.28033936 1150.08389893 209.29895996 1150.6482666 208.2878418 1151.22973633 C203.00579211 1154.05506273 198.60627565 1155.45602233 192.5625 1154.6875 C190.01760447 1153.75629959 187.91272399 1152.83851494 185.5625 1151.5625 C184.88864258 1151.21123047 184.21478516 1150.85996094 183.52050781 1150.49804688 C175.23457402 1146.10594834 167.17731892 1141.29049929 159.1015625 1136.52734375 C152.33243521 1132.53894202 145.51431973 1128.63839491 138.6875 1124.75 C136.31744944 1123.39889117 133.94770363 1122.04724883 131.578125 1120.6953125 C130.99294098 1120.36146042 130.40775696 1120.02760834 129.80484009 1119.68363953 C118.2945593 1113.1129793 106.82874144 1106.46461275 95.35351562 1099.83300781 C92.13181725 1097.97147328 88.90978921 1096.11051161 85.6875 1094.25 C84.08841797 1093.32670898 84.08841797 1093.32670898 82.45703125 1092.38476562 C73.87254403 1087.43296958 65.26669707 1082.51925132 56.65777588 1077.61013794 C47.61778292 1072.45333392 38.61724679 1067.23206231 29.63574219 1061.97412109 C22.01344222 1057.51833656 14.35718689 1053.12352854 6.6875 1048.75 C-7.78700369 1040.49584364 -22.21971846 1032.17032628 -36.64648438 1023.83300781 C-48.89408605 1016.7562021 -61.15225118 1009.69873553 -73.4375 1002.6875 C-85.71991289 995.67788295 -97.97507795 988.6217758 -110.21972656 981.54638672 C-115.62420641 978.42425397 -121.03094718 975.30604119 -126.4375 972.1875 C-132.91516885 968.45113085 -139.39239983 964.71401653 -145.8671875 960.97265625 C-157.67379484 954.15247363 -169.49777 947.3642674 -181.34222412 940.61013794 C-190.36996979 935.4603203 -199.36037787 930.24956136 -208.3269043 924.99389648 C-213.81204729 921.7844313 -219.31454649 918.60840318 -224.83984375 915.46875 C-225.78157944 914.93314453 -225.78157944 914.93314453 -226.74234009 914.38671875 C-229.79638436 912.65039734 -232.85248486 910.91787503 -235.91210938 909.19140625 C-256.49777238 897.50668285 -256.49777238 897.50668285 -259.4375 888.6875 C-259.53024831 886.949971 -259.56419937 885.20905543 -259.5651505 883.46905303 C-259.56816647 882.37900791 -259.57118244 881.28896278 -259.5742898 880.16588598 C-259.57252033 878.96127846 -259.57075086 877.75667093 -259.56892776 876.51556015 C-259.5709804 875.23609691 -259.57303303 873.95663368 -259.57514787 872.63839883 C-259.58073224 869.0639693 -259.58003888 865.48956365 -259.57837028 861.91513115 C-259.57764124 858.03507428 -259.58265725 854.15502427 -259.5869453 850.27497029 C-259.59453863 842.56903902 -259.59671903 834.86311468 -259.59727435 827.15718006 C-259.59818667 817.93134784 -259.60485028 808.70552206 -259.61162117 799.4796926 C-259.62769681 777.17898392 -259.63358611 754.87827591 -259.63836992 732.57756248 C-259.64070418 722.03264186 -259.64430663 711.4877218 -259.6480653 700.94280161 C-259.66090183 664.86258834 -259.67162122 628.78237538 -259.6750679 592.70215988 C-259.67528954 590.43638673 -259.67551132 588.17061358 -259.67573325 585.90484042 C-259.6759539 583.63352415 -259.67617438 581.36220787 -259.6763947 579.0908916 C-259.67683726 574.53406445 -259.67728437 569.9772373 -259.67773438 565.42041016 C-259.67784377 564.29057821 -259.67795316 563.16074626 -259.67806586 561.99667699 C-259.68169768 525.34977573 -259.6976219 488.70289425 -259.72092474 452.05600057 C-259.74550385 413.33135113 -259.75923984 374.60671299 -259.76043582 335.88205552 C-259.76060728 331.63357178 -259.76082271 327.38508805 -259.76107025 323.13660431 C-259.7611539 321.56740413 -259.7611539 321.56740413 -259.76123925 319.96650294 C-259.76239134 303.10923675 -259.77342668 286.25199079 -259.78795731 269.39473144 C-259.80230197 252.46079312 -259.80557079 235.52688082 -259.79751733 218.5929381 C-259.79305155 208.52523355 -259.79695948 198.45761283 -259.81275584 188.38991925 C-259.82247567 181.67024315 -259.82135638 174.95062604 -259.81131961 168.23095054 C-259.80590585 164.39872497 -259.80528688 160.56666086 -259.81782833 156.7344484 C-259.8312125 152.61044159 -259.82150497 148.4868151 -259.8094368 144.36280441 C-259.81703199 143.16756155 -259.82462718 141.97231869 -259.83245254 140.74085635 C-259.78491324 133.26797073 -259.1820305 128.13807026 -254.41796875 122.1484375 C-250.16811142 118.63938099 -245.53669037 116.02434242 -240.75 113.3125 C-239.16300293 112.40056885 -239.16300293 112.40056885 -237.54394531 111.47021484 C-235.30470674 110.18401886 -233.06361422 108.90104585 -230.82080078 107.62109375 C-227.56057404 105.75783817 -224.30813648 103.88181576 -221.05859375 102 C-209.24240019 95.15847208 -197.39413685 88.37412691 -185.5333252 81.6104126 C-177.47523079 77.01374562 -169.44349909 72.374362 -161.4375 67.6875 C-152.84227328 62.6556931 -144.2143787 57.68360928 -135.5625 52.75 C-126.46670013 47.56307574 -117.38037737 42.36068494 -108.3125 37.125 C-107.24644531 36.50947266 -106.18039062 35.89394531 -105.08203125 35.25976562 C-101.86692477 33.40279806 -98.65214622 31.54526421 -95.4375 29.6875 C-80.68808512 21.16372068 -65.92598855 12.66350999 -51.12548828 4.22875977 C-50.03478027 3.60670654 -48.94407227 2.98465332 -47.8203125 2.34375 C-46.23524902 1.44076172 -46.23524902 1.44076172 -44.61816406 0.51953125 C-40.38064731 -1.92123676 -36.18288639 -4.42785612 -31.99169922 -6.94726562 C-20.3568506 -13.16616005 -10.13319753 -5.72878907 0 0 Z M-28.50390625 34.44140625 C-29.53306152 35.04073975 -30.5622168 35.64007324 -31.62255859 36.25756836 C-32.73711426 36.9150708 -33.85166992 37.57257324 -35 38.25 C-36.17228429 38.93501889 -37.3449801 39.61933399 -38.51806641 40.30297852 C-40.95557265 41.72427816 -43.39127491 43.14859701 -45.82568359 44.57519531 C-51.30639784 47.7842123 -56.80985025 50.95379507 -62.3125 54.125 C-63.37654053 54.73923828 -64.44058105 55.35347656 -65.53686523 55.98632812 C-74.12300337 60.94009194 -82.73120783 65.85455398 -91.34222412 70.76486206 C-99.40013212 75.36144223 -107.43167786 80.0007416 -115.4375 84.6875 C-125.20743084 90.40700072 -135.02509385 96.04011408 -144.85961914 101.64746094 C-152.87855679 106.22037995 -160.88209442 110.81916539 -168.875 115.4375 C-180.04229598 121.88971546 -191.232328 128.30131028 -202.4375 134.6875 C-199.0225243 138.57775583 -195.18717304 140.66973036 -190.6875 143.0625 C-183.40319803 147.02204163 -176.21190108 151.11436696 -169.0625 155.3125 C-160.26025242 160.47177977 -151.42624648 165.57227026 -142.5625 170.625 C-132.43424706 176.39941457 -122.32546546 182.20641122 -112.23144531 188.04052734 C-104.86528163 192.2948718 -97.48337811 196.52099055 -90.09375 200.734375 C-81.82846941 205.44703498 -73.5710338 210.17137046 -65.3605957 214.97924805 C-63.42509143 216.11035331 -61.48615555 217.2356086 -59.54370117 218.35473633 C-54.6313873 221.19129781 -49.77448489 224.08590594 -44.99093628 227.13366699 C-42.49682625 228.71370465 -39.98101461 230.25698794 -37.46166992 231.79638672 C-36.25034202 232.54897832 -35.04903292 233.31797432 -33.85913086 234.10400391 C-30.17221155 236.53474424 -26.72815709 238.57386855 -22.4375 239.6875 C-18.09006044 238.62916101 -15.01633984 236.29674155 -11.4375 233.6875 C-9.55225623 232.60965691 -7.65201833 231.55765158 -5.73828125 230.53125 C5.68749637 224.16110096 17.04861922 217.69480878 28.33325195 211.07788086 C36.00516137 206.58313247 43.71299534 202.15352093 51.4375 197.75 C60.53347353 192.56338302 69.61962514 187.36068349 78.6875 182.125 C79.75355469 181.50947266 80.81960938 180.89394531 81.91796875 180.25976562 C85.13307523 178.40279806 88.34785378 176.54526421 91.5625 174.6875 C95.85372774 172.20757259 100.14535853 169.72834566 104.4375 167.25 C105.49557861 166.63882324 106.55365723 166.02764648 107.64379883 165.39794922 C113.40822147 162.0718021 119.18083902 158.76068416 124.96484375 155.46875 C125.58510437 155.11546127 126.20536499 154.76217255 126.84442139 154.3981781 C129.82354442 152.70146144 132.80385815 151.00696811 135.78662109 149.31665039 C143.48539927 144.93568172 151.04695497 140.37382662 158.5625 135.6875 C155.65308017 133.41800047 152.66789313 131.51192956 149.46875 129.67578125 C148.45280762 129.09111084 147.43686523 128.50644043 146.39013672 127.90405273 C145.2920166 127.27571533 144.19389648 126.64737793 143.0625 126 C141.90238709 125.33362256 140.74239596 124.6670331 139.58251953 124.00024414 C130.6206963 118.85197735 121.64166904 113.73368189 112.66381836 108.61343384 C103.62179396 103.45555645 94.61922891 98.23322268 85.63574219 92.97412109 C78.01344222 88.51833656 70.35718689 84.12352854 62.6875 79.75 C50.37534227 72.72893198 38.0916162 65.65980744 25.81982422 58.56835938 C22.46589437 56.63171753 19.1101497 54.69825427 15.75390625 52.765625 C14.63201904 52.11932129 13.51013184 51.47301758 12.35424805 50.80712891 C10.14642401 49.53536827 7.93826228 48.26419366 5.72973633 46.99365234 C0.88591738 44.20245056 -3.94640731 41.39652757 -8.7421875 38.5234375 C-9.93026001 37.81344604 -9.93026001 37.81344604 -11.14233398 37.08911133 C-12.58291391 36.22507842 -14.02019773 35.35551461 -15.45336914 34.47924805 C-20.95927839 31.17655756 -23.05366221 31.2426338 -28.50390625 34.44140625 Z M626.90625 158.1875 C625.51817139 159.01109009 625.51817139 159.01109009 624.10205078 159.85131836 C623.09899902 160.4572583 622.09594727 161.06319824 621.0625 161.6875 C618.88358998 162.98177853 616.70386975 164.27469383 614.5234375 165.56640625 C613.95623993 165.90370255 613.38904236 166.24099884 612.80465698 166.58851624 C607.05648951 170.00281132 601.25422937 173.32045336 595.4430542 176.62625122 C592.48662698 178.30818623 589.53236561 179.99391561 586.578125 181.6796875 C585.70025833 182.18052605 585.70025833 182.18052605 584.80465698 182.69148254 C575.4430498 188.03547625 566.11362049 193.43547674 556.78027344 198.82861328 C550.29124904 202.57728034 543.7991305 206.32058667 537.30761719 210.06494141 C531.91501686 213.17568339 526.52312178 216.28763327 521.1328125 219.40234375 C506.40843341 227.90829904 491.6554666 236.36281204 476.88623047 244.79052734 C471.69376828 247.75405248 466.50316538 250.72082924 461.3125 253.6875 C459.59896784 254.6666833 457.88542725 255.64585186 456.171875 256.625 C455.47030273 257.02589844 454.76873047 257.42679687 454.04589844 257.83984375 C453.55637695 258.11957031 453.06685547 258.39929688 452.5625 258.6875 C455.47191983 260.95699953 458.45710687 262.86307044 461.65625 264.69921875 C462.67219238 265.28388916 463.68813477 265.86855957 464.73486328 266.47094727 C465.8329834 267.09928467 466.93110352 267.72762207 468.0625 268.375 C469.22261291 269.04137744 470.38260404 269.7079669 471.54248047 270.37475586 C480.5043037 275.52302265 489.48333096 280.64131811 498.46118164 285.76156616 C507.50320604 290.91944355 516.50577109 296.14177732 525.48925781 301.40087891 C533.11155778 305.85666344 540.76781311 310.25147146 548.4375 314.625 C560.74965773 321.64606802 573.0333838 328.71519256 585.30517578 335.80664062 C588.65910563 337.74328247 592.0148503 339.67674573 595.37109375 341.609375 C596.49273926 342.25575928 597.61438477 342.90214355 598.77001953 343.56811523 C600.97951552 344.84040033 603.19010149 346.11079468 605.40185547 347.37915039 C610.22889697 350.15360607 615.03024206 352.95174906 619.76171875 355.88671875 C620.54023193 356.36455811 621.31874512 356.84239746 622.12084961 357.3347168 C623.52785768 358.20318419 624.92669809 359.08510732 626.31469727 359.98364258 C629.22098965 361.7697497 631.0225621 362.73204918 634.47119141 362.44750977 C637.55833609 361.68852371 639.70265144 360.72333304 642.4140625 359.08984375 C643.33316406 358.54392578 644.25226563 357.99800781 645.19921875 357.43554688 C646.18535156 356.83806641 647.17148438 356.24058594 648.1875 355.625 C650.34554329 354.34108399 652.50443216 353.05858843 654.6640625 351.77734375 C655.79231445 351.10558105 656.92056641 350.43381836 658.08300781 349.74169922 C663.28243252 346.66024052 668.53907218 343.67897727 673.79364014 340.69290161 C683.08252354 335.41319657 692.34223798 330.08639862 701.5625 324.6875 C710.1576729 319.6556021 718.78562222 314.68360876 727.4375 309.75 C740.83879996 302.1078433 754.20503024 294.40604394 767.5625 286.6875 C783.20762961 277.64952273 798.86488963 268.63407555 814.5625 259.6875 C811.32983025 256.9966852 808.13472803 254.74865192 804.44921875 252.7265625 C803.46139404 252.18016113 802.47356934 251.63375977 801.45581055 251.07080078 C800.39789307 250.49056152 799.33997559 249.91032227 798.25 249.3125 C789.69342938 244.57189037 781.18587472 239.7648088 772.75 234.8125 C764.09397009 229.735811 755.40527147 224.71975416 746.6875 219.75 C732.21271935 211.49633228 717.78027821 203.17032435 703.35351562 194.83300781 C700.13181726 192.97147328 696.90978481 191.11051923 693.6875 189.25 C692.626521 188.63737305 691.56554199 188.02474609 690.47241211 187.39355469 C684.75579656 184.0959212 679.03295316 180.80955703 673.30078125 177.5390625 C672.69506287 177.19340744 672.08934448 176.84775238 671.465271 176.49162292 C668.45913018 174.77658747 665.45207326 173.06318256 662.44384766 171.35180664 C657.3210922 168.43203192 652.21188195 165.49836658 647.16015625 162.45703125 C646.3700415 161.98241455 645.57992676 161.50779785 644.76586914 161.01879883 C643.35004258 160.16334152 641.93864389 159.30048858 640.53295898 158.4284668 C635.20765652 155.20820518 632.20619962 155.00159903 626.90625 158.1875 Z M-221.4375 168.6875 C-221.4375 401.3375 -221.4375 633.9875 -221.4375 873.6875 C-212.8575 878.6375 -204.2775 883.5875 -195.4375 888.6875 C-189.064375 892.3690625 -189.064375 892.3690625 -182.5625 896.125 C-172.9034175 901.70254226 -163.22189835 907.23977945 -153.53277588 912.76486206 C-144.49278292 917.92166608 -135.49224679 923.14293769 -126.51074219 928.40087891 C-118.88844222 932.85666344 -111.23218689 937.25147146 -103.5625 941.625 C-89.08799631 949.87915636 -74.65528154 958.20467372 -60.22851562 966.54199219 C-57.00681725 968.40352672 -53.78478921 970.26448839 -50.5625 972.125 C-49.49644531 972.74052734 -48.43039062 973.35605469 -47.33203125 973.99023438 C-38.74754403 978.94203042 -30.14169707 983.85574868 -21.53277588 988.76486206 C-12.49278292 993.92166608 -3.49224679 999.14293769 5.48925781 1004.40087891 C13.11155778 1008.85666344 20.76781311 1013.25147146 28.4375 1017.625 C42.91200369 1025.87915636 57.34471846 1034.20467372 71.77148438 1042.54199219 C74.99318275 1044.40352672 78.21521079 1046.26448839 81.4375 1048.125 C82.50355469 1048.74052734 83.56960938 1049.35605469 84.66796875 1049.99023438 C93.25245597 1054.94203042 101.85830293 1059.85574868 110.46722412 1064.76486206 C118.52513507 1069.36144391 126.55652022 1074.00100753 134.5625 1078.6875 C143.0137398 1083.63155778 151.4833981 1088.54235562 159.9777832 1093.41186523 C161.23385772 1094.13227755 162.48939987 1094.85361894 163.74438477 1095.57592773 C165.49079518 1096.58067009 167.23948968 1097.58143915 168.98828125 1098.58203125 C169.99286377 1099.15800049 170.99744629 1099.73396973 172.0324707 1100.32739258 C174.5725452 1101.78566613 174.5725452 1101.78566613 177.5625 1102.6875 C177.5625 1034.0475 177.5625 965.4075 177.5625 894.6875 C162.03522154 885.81476945 146.51747657 876.96692854 130.90625 868.25 C124.10038442 864.43871527 117.33028152 860.56579736 110.5625 856.6875 C99.59954699 850.40575638 88.59285493 844.20567717 77.5625 838.04296875 C62.62216838 829.6943846 47.74895659 821.22888983 32.89682007 812.72467041 C24.64369053 808.00051858 16.36560256 803.3233934 8.0625 798.6875 C6.03506464 797.55094465 4.0077219 796.41422408 1.98046875 795.27734375 C-2.02949148 793.02947857 -6.04743455 790.7970132 -10.07260132 788.5765686 C-12.6383784 787.15725668 -15.19746519 785.7261643 -17.75537109 784.29272461 C-18.98420266 783.60738384 -20.2157514 782.92688838 -21.45019531 782.25170898 C-36.69848347 773.90454959 -36.69848347 773.90454959 -39.4375 765.6875 C-39.52931597 762.9947232 -39.56341536 760.3283985 -39.55102539 757.63575268 C-39.55117124 756.8017205 -39.55131709 755.96768832 -39.55146736 755.10838243 C-39.55076159 752.2892049 -39.54289122 749.47009107 -39.53515625 746.65092468 C-39.53327977 744.61908546 -39.53186589 742.58724576 -39.53087711 740.55540591 C-39.52778178 736.12511351 -39.52154188 731.69484012 -39.51295662 727.26455498 C-39.49906384 720.05734368 -39.49207281 712.85013554 -39.4861908 705.64291382 C-39.4795465 697.88458943 -39.47246047 690.1262666 -39.46300411 682.36794508 C-39.44061577 663.83021918 -39.43262337 645.29253157 -39.4354708 626.75479271 C-39.43579192 624.65222741 -39.43607285 622.5496621 -39.43634379 620.44709679 C-39.43775569 609.72876616 -39.43975991 599.01043565 -39.44182625 588.29210514 C-39.44394243 577.24755253 -39.44539116 566.20300007 -39.44580078 555.15844727 C-39.44583591 554.42312303 -39.44587103 553.6877988 -39.44590722 552.93019201 C-39.44685353 529.08073879 -39.42111925 505.23139848 -39.38263944 481.38197933 C-39.34325276 456.87021383 -39.33350715 432.35860305 -39.3600932 407.84681642 C-39.36382625 404.38643698 -39.36720539 400.92605728 -39.37036133 397.46567726 C-39.37099117 396.78462811 -39.37162101 396.10357897 -39.37226994 395.40189196 C-39.38151255 384.43202793 -39.35919089 373.46244321 -39.32493024 362.49263815 C-39.2911373 351.47108737 -39.29046573 340.4498416 -39.32167059 329.4282616 C-39.33758281 323.45464787 -39.33865861 317.48197129 -39.30073357 311.5084362 C-39.26634578 306.04336582 -39.27311964 300.57997475 -39.31312943 295.11495695 C-39.32026541 293.13446255 -39.31206694 291.15384352 -39.28727531 289.17349144 C-38.73990799 279.11174897 -38.73990799 279.11174897 -42.41220188 270.22684062 C-44.72573082 268.64963944 -46.81339815 267.63491228 -49.4375 266.6875 C-50.40631104 266.11193359 -51.37512207 265.53636719 -52.37329102 264.94335938 C-53.22076904 264.47736328 -54.06824707 264.01136719 -54.94140625 263.53125 C-56.40380737 262.72131592 -56.40380737 262.72131592 -57.89575195 261.89501953 C-58.92015381 261.33153809 -59.94455566 260.76805664 -61 260.1875 C-69.471687 255.48635433 -77.89375898 250.71598622 -86.25 245.8125 C-94.9459455 240.7115304 -103.67756113 235.6774162 -112.4375 230.6875 C-121.13168163 225.73400554 -129.80247675 220.7437137 -138.4375 215.6875 C-148.20368086 209.97005539 -158.01739336 204.33861654 -167.84863281 198.73413086 C-175.97715156 194.09937894 -184.0868893 189.43337828 -192.1875 184.75 C-199.44412193 180.55818172 -206.70367977 176.37243772 -214 172.25 C-214.65516602 171.87818604 -215.31033203 171.50637207 -215.98535156 171.12329102 C-218.56011062 169.41876435 -218.56011062 169.41876435 -221.4375 168.6875 Z M171.1015625 171.1875 C169.70381592 172.01109009 169.70381592 172.01109009 168.27783203 172.85131836 C166.74811768 173.76022827 166.74811768 173.76022827 165.1875 174.6875 C162.99025528 175.98161031 160.79231057 177.2745327 158.59375 178.56640625 C158.02036896 178.90370255 157.44698792 179.24099884 156.85623169 179.58851624 C150.49865756 183.32323937 144.09446752 186.97583839 137.6875 190.625 C135.31744644 191.97610358 132.94770265 193.32774945 130.578125 194.6796875 C129.70024323 195.18052605 129.70024323 195.18052605 128.80462646 195.69148254 C119.44306652 201.03554176 110.11361323 206.43548094 100.78027344 211.82861328 C94.29124904 215.57728034 87.7991305 219.32058667 81.30761719 223.06494141 C75.91501686 226.17568339 70.52312178 229.28763327 65.1328125 232.40234375 C51.71721016 240.15224702 38.28013406 247.86335583 24.82421875 255.54296875 C15.40156092 260.92082779 5.98235185 266.30472752 -3.4375 271.6875 C-3.4375 422.1675 -3.4375 572.6475 -3.4375 727.6875 C4.47140612 723.73304694 12.1082516 719.743467 19.6875 715.25 C21.79914167 714.00854034 23.91113294 712.76767518 26.0234375 711.52734375 C27.64137207 710.57577393 27.64137207 710.57577393 29.29199219 709.60498047 C34.61775866 706.48251332 39.96401688 703.39584846 45.3125 700.3125 C46.385 699.69391113 47.4575 699.07532227 48.5625 698.43798828 C57.18333354 693.47102644 65.82389236 688.53902229 74.4666748 683.6104126 C82.52476921 679.01374562 90.55650091 674.374362 98.5625 669.6875 C107.1577319 664.65569007 115.78585674 659.68402765 124.4375 654.75 C133.79935484 649.40915022 143.15772004 644.06253831 152.5 638.6875 C153.52270996 638.10105713 154.54541992 637.51461426 155.59912109 636.91040039 C157.52442696 635.80126704 159.43903266 634.67323771 161.33961803 633.5222578 C164.5625 631.6875 164.5625 631.6875 167.93455714 630.23679829 C171.92022225 628.32996687 174.41686064 626.816198 177.5625 623.6875 C179.50277357 617.62998563 179.2665193 611.75889527 179.12580872 605.4519043 C179.13147989 603.56819081 179.14286657 601.68448734 179.15946788 599.80083847 C179.1885252 594.62988064 179.13657001 589.462426 179.07135308 584.2919147 C179.01520446 578.71463645 179.03421127 573.13755524 179.04408264 567.56007385 C179.05089894 557.89874461 179.01011809 548.23855677 178.93699074 538.57751465 C178.83133129 524.60948157 178.79748151 510.64200032 178.78114685 496.67361093 C178.75269549 474.01105163 178.66629637 451.34920452 178.54321289 428.68701172 C178.42378821 406.67304645 178.33171494 384.65924391 178.27661133 362.64501953 C178.27490149 361.9662763 178.27319165 361.28753307 178.27142999 360.58822186 C178.25428902 353.77191306 178.23770347 346.95560299 178.22152482 340.13929184 C178.08582375 282.98827062 177.85645322 225.83791353 177.5625 168.6875 C174.82379263 168.6875 173.45778248 169.78929331 171.1015625 171.1875 Z M433.5625 291.6875 C433.04795352 318.32096986 432.66033139 344.95369238 432.42263222 371.59113598 C432.309314 383.96048061 432.15492293 396.3267328 431.90283203 408.6940918 C431.68313771 419.47726929 431.54152915 430.25820753 431.49255311 441.0435608 C431.46392925 446.75274482 431.39700582 452.45552509 431.23643875 458.16264915 C429.46733568 480.34483846 429.46733568 480.34483846 435.70711899 500.83629417 C440.78477604 505.54684697 446.33807628 507.97360976 452.93417358 509.86954117 C456.69400056 511.03963316 459.66307092 512.87779829 462.9921875 514.96484375 C465.13981415 516.1863226 467.28824409 517.40639022 469.4375 518.625 C471.8316137 519.98673134 474.22463855 521.35036525 476.6171875 522.71484375 C477.20538269 523.05027191 477.79357788 523.38570007 478.39959717 523.73129272 C484.14330977 527.01128908 489.85511676 530.3448224 495.5625 533.6875 C504.15761907 538.71948893 512.78562315 543.69139177 521.4375 548.625 C533.76275196 555.65353507 546.05972067 562.72990434 558.34472656 569.82861328 C564.81384761 573.5657823 571.28563343 577.29833848 577.75805664 581.02978516 C582.86805032 583.97634717 587.9762986 586.92582608 593.07901001 589.88497925 C595.50801977 591.29338062 597.93793188 592.70022093 600.36791992 594.10693359 C602.09707851 595.10882206 603.8249178 596.11298641 605.55273438 597.1171875 C606.58849609 597.71660156 607.62425781 598.31601562 608.69140625 598.93359375 C610.06921265 599.73301392 610.06921265 599.73301392 611.47485352 600.54858398 C613.31245871 601.76731948 613.31245871 601.76731948 614.5625 601.6875 C615.07704648 575.05403014 615.46466861 548.42130762 615.70236778 521.78386402 C615.815686 509.41451939 615.97007707 497.0482672 616.22216797 484.6809082 C616.44186229 473.89773071 616.58347085 463.11679247 616.63244689 452.3314392 C616.66107075 446.62225518 616.72799418 440.91947491 616.88856125 435.21235085 C618.65766432 413.03016154 618.65766432 413.03016154 612.41788101 392.53870583 C607.34022396 387.82815303 601.78692372 385.40139024 595.19082642 383.50545883 C591.43099944 382.33536684 588.46192908 380.49720171 585.1328125 378.41015625 C582.98518585 377.1886774 580.83675591 375.96860978 578.6875 374.75 C576.2933863 373.38826866 573.90036145 372.02463475 571.5078125 370.66015625 C570.91961731 370.32472809 570.33142212 369.98929993 569.72540283 369.64370728 C563.98169023 366.36371092 558.26988324 363.0301776 552.5625 359.6875 C543.96738093 354.65551107 535.33937685 349.68360823 526.6875 344.75 C514.36224804 337.72146493 502.06527933 330.64509566 489.78027344 323.54638672 C483.31115239 319.8092177 476.83936657 316.07666152 470.36694336 312.34521484 C465.25694968 309.39865283 460.1487014 306.44917392 455.04598999 303.49002075 C452.61698023 302.08161938 450.18706812 300.67477907 447.75708008 299.26806641 C446.02792149 298.26617794 444.3000822 297.26201359 442.57226562 296.2578125 C441.53650391 295.65839844 440.50074219 295.05898438 439.43359375 294.44140625 C438.51505615 293.90845947 437.59651855 293.3755127 436.65014648 292.82641602 C434.81254129 291.60768052 434.81254129 291.60768052 433.5625 291.6875 Z M827.69140625 294.44140625 C826.65564453 295.04082031 825.61988281 295.64023437 824.55273438 296.2578125 C823.42158203 296.91523438 822.29042969 297.57265625 821.125 298.25 C819.94479328 298.93382132 818.76445274 299.61741171 817.58398438 300.30078125 C815.12724459 301.72322203 812.67108885 303.1466637 810.21533203 304.57080078 C804.66976805 307.78568679 799.1157736 310.98595652 793.5625 314.1875 C787.08474143 317.9237134 780.60760003 321.66098355 774.1328125 325.40234375 C762.32620516 332.22252637 750.50223 339.0107326 738.65777588 345.76486206 C729.62062865 350.92004275 720.62220895 356.13847368 711.64453125 361.39648438 C706.31745085 364.51159166 700.9778303 367.60315988 695.6171875 370.66015625 C694.72160126 371.17091202 694.72160126 371.17091202 693.80792236 371.69198608 C690.95050398 373.32052686 688.09150453 374.94617648 685.23046875 376.56835938 C683.05410104 377.80618492 680.90444107 379.09207176 678.78308105 380.42196655 C675.63161274 382.2725172 672.60661581 383.31217722 669.09997559 384.32009888 C662.2027794 386.69435279 656.74682272 389.5439514 652.5625 395.6875 C647.92420006 408.80831673 649.94789638 424.95653004 650.33183336 438.60301423 C650.46994266 444.34128138 650.48232862 450.07983116 650.50839233 455.81950378 C650.57661067 466.67287914 650.75689457 477.52134378 650.97808111 488.37256211 C651.22451308 500.73227044 651.34507236 513.09222118 651.45538068 525.45377696 C651.68496626 550.86773444 652.07158733 576.27734144 652.5625 601.6875 C654.44869268 600.75441809 656.33371634 599.81897286 658.21826172 598.88256836 C659.26811249 598.36190292 660.31796326 597.84123749 661.39962769 597.30479431 C666.27660242 594.81101565 670.97724333 592.04254377 675.6875 589.25 C677.79914167 588.00854034 679.91113294 586.76767518 682.0234375 585.52734375 C683.10206055 584.89296387 684.18068359 584.25858398 685.29199219 583.60498047 C690.61775866 580.48251332 695.96401688 577.39584846 701.3125 574.3125 C702.92125 573.3846167 702.92125 573.3846167 704.5625 572.43798828 C713.18333354 567.47102644 721.82389236 562.53902229 730.4666748 557.6104126 C738.52476921 553.01374562 746.55650091 548.374362 754.5625 543.6875 C763.1577319 538.65569007 771.78585674 533.68402765 780.4375 528.75 C789.79935484 523.40915022 799.15772004 518.06253831 808.5 512.6875 C809.52270996 512.10105713 810.54541992 511.51461426 811.59912109 510.91040039 C813.5252503 509.80079273 815.43983684 508.67077535 817.33927631 507.51607513 C820.5625 505.6875 820.5625 505.6875 823.93763256 504.29244232 C830.33480405 501.39027665 830.33480405 501.39027665 834.30014443 495.79826546 C835.51723292 489.89264689 835.18962134 483.86288344 835.03833008 477.86914062 C835.03466071 475.83843218 835.03672619 473.80770649 835.04408264 471.77700806 C835.04780763 466.27613869 834.97147754 460.77896649 834.88062119 455.27895546 C834.79926069 449.52694156 834.79171069 443.77483939 834.77629089 438.02233887 C834.7359113 427.13492075 834.62927101 416.24920298 834.49874753 405.36253309 C834.35335608 392.96620993 834.28194346 380.56980482 834.21670687 368.17284107 C834.08088328 342.67678527 833.85227797 317.18223797 833.5625 291.6875 C831.49510459 291.6875 829.40416342 293.44764354 827.69140625 294.44140625 Z M409.00390625 533.1875 C408.07513672 533.73664062 407.14636719 534.28578125 406.18945312 534.8515625 C405.17818359 535.45742188 404.16691406 536.06328125 403.125 536.6875 C400.93954216 537.98041846 398.75331297 539.27203376 396.56640625 540.5625 C395.99652985 540.89958984 395.42665344 541.23667969 394.83950806 541.58398438 C389.03709352 545.01135403 383.18608009 548.35146097 377.32833862 551.68310547 C368.04194994 556.96512722 358.78189786 562.28910738 349.5625 567.6875 C340.9673271 572.7193979 332.33937778 577.69139124 323.6875 582.625 C314.59170013 587.81192426 305.50537737 593.01431506 296.4375 598.25 C294.83841797 599.17329102 294.83841797 599.17329102 293.20703125 600.11523438 C289.99192477 601.97220194 286.77714622 603.82973579 283.5625 605.6875 C269.61405632 613.74839304 255.65246112 621.78459426 241.65777588 629.76486206 C233.59986788 634.36144223 225.56832214 639.0007416 217.5625 643.6875 C208.96727328 648.7193069 200.3393787 653.69139072 191.6875 658.625 C182.59170013 663.81192426 173.50537737 669.01431506 164.4375 674.25 C163.37144531 674.86552734 162.30539062 675.48105469 161.20703125 676.11523438 C157.99192477 677.97220194 154.77714622 679.82973579 151.5625 681.6875 C137.61405632 689.74839304 123.65246112 697.78459426 109.65777588 705.76486206 C101.59986788 710.36144223 93.56832214 715.0007416 85.5625 719.6875 C76.96725943 724.71931501 68.33874168 729.69025945 59.6875 734.625 C58.51827711 735.29250328 57.34908757 735.96006498 56.17993164 736.62768555 C51.40062881 739.3564657 46.62129595 742.08517525 41.83837891 744.80761719 C38.79981241 746.53757987 35.76408194 748.2724282 32.73016357 750.01052856 C31.03770618 750.97843603 29.34236951 751.94130335 27.64697266 752.90405273 C26.62780762 753.48872314 25.60864258 754.07339355 24.55859375 754.67578125 C23.66325928 755.18665283 22.7679248 755.69752441 21.84545898 756.22387695 C19.77289262 757.55261563 18.20798004 758.87020005 16.5625 760.6875 C30.10056908 768.67550087 43.71453344 776.47955218 57.47851562 784.07177734 C65.00707058 788.23621154 72.46035822 792.51131583 79.875 796.875 C88.32744231 801.8475147 96.86066287 806.62992616 105.48779297 811.29199219 C113.47154111 815.613352 121.35136303 820.10291234 129.22265625 824.625 C134.77974555 827.81747958 140.35660758 830.97435916 145.9375 834.125 C146.88737793 834.66141113 147.83725586 835.19782227 148.81591797 835.75048828 C151.73125799 837.39649093 154.64687781 839.04199724 157.5625 840.6875 C160.59302044 842.39842739 163.62337416 844.10964519 166.65307617 845.82202148 C168.61165808 846.92785681 170.5714302 848.03158717 172.5324707 849.13305664 C176.69215215 851.4735322 180.83255969 853.82873681 184.90625 856.31640625 C185.54554443 856.70143311 186.18483887 857.08645996 186.84350586 857.4831543 C188.47775874 858.47329161 190.10080967 859.48185684 191.72265625 860.4921875 C195.24978922 861.97678542 196.87316889 861.56080464 200.5625 860.6875 C203.0921261 859.54251084 203.0921261 859.54251084 205.51953125 858.01953125 C206.92174927 857.18494385 206.92174927 857.18494385 208.35229492 856.33349609 C209.3497876 855.72844238 210.34728027 855.12338867 211.375 854.5 C213.53268352 853.21547948 215.69157622 851.93298829 217.8515625 850.65234375 C219.51493652 849.66403564 219.51493652 849.66403564 221.21191406 848.65576172 C226.51210861 845.54222569 231.87794675 842.54980621 237.25 839.5625 C247.43903202 833.88335453 257.5821524 828.12994615 267.70117188 822.32714844 C272.57938227 819.53175074 277.46184254 816.74379125 282.34384155 813.95501709 C285.33486328 812.246345 288.32562061 810.53721026 291.31640625 808.828125 C292.52750526 808.13606552 293.73860552 807.44400823 294.94970703 806.75195312 C295.84704559 806.23918823 295.84704559 806.23918823 296.76251221 805.71606445 C300.86763509 803.37027995 304.97275798 801.02449544 309.07788086 798.67871094 C309.65263153 798.35028198 310.2273822 798.02185303 310.81954956 797.68347168 C442.0625 722.6875 442.0625 722.6875 443.81245422 721.68753052 C444.97927849 721.02077089 446.14609774 720.3540025 447.31291199 719.68722534 C450.22712646 718.02190912 453.14142742 716.35674463 456.0559082 714.69189453 C461.33525664 711.67595394 466.61393944 708.65887659 471.88943481 705.63619995 C474.84253016 703.9442216 477.79612989 702.25312536 480.75 700.5625 C481.33100464 700.22994202 481.91200928 699.89738403 482.51062012 699.55474854 C490.75035151 694.84080102 499.02046842 690.18382005 507.3125 685.5625 C516.45695571 680.46535402 525.51609092 675.23751254 534.54394531 669.93701172 C541.66837173 665.76459919 548.84856857 661.70290732 556.0625 657.6875 C564.72645529 652.85817498 573.3551495 647.97309615 581.9375 643 C582.96037109 642.41154297 583.98324219 641.82308594 585.03710938 641.21679688 C585.98134766 640.66701172 586.92558594 640.11722656 587.8984375 639.55078125 C588.72907715 639.06907471 589.5597168 638.58736816 590.41552734 638.09106445 C592.41703295 636.7825978 593.95383378 635.44598342 595.5625 633.6875 C594.93085937 633.33671387 594.29921875 632.98592773 593.6484375 632.62451172 C580.95532908 625.56694225 568.32285938 618.42605764 555.79443359 611.0793457 C548.12152431 606.58428827 540.41289074 602.15402606 532.6875 597.75 C518.21271935 589.49633228 503.78027821 581.17032435 489.35351562 572.83300781 C486.13181727 570.97147329 482.90977287 569.11053987 479.6875 567.25 C478.62289551 566.63519775 477.55829102 566.02039551 476.46142578 565.38696289 C470.80781194 562.12532793 465.14762145 558.8757087 459.4765625 555.64453125 C458.88444473 555.30706375 458.29232697 554.96959625 457.68226624 554.62190247 C455.30459476 553.26693322 452.92690293 551.9120039 450.54818726 550.55886841 C444.33574659 547.02383231 438.14617373 543.45804374 432.01171875 539.7890625 C430.48562988 538.87664795 430.48562988 538.87664795 428.92871094 537.94580078 C427.02332259 536.8018689 425.12142138 535.65210167 423.22363281 534.49560547 C422.38541992 533.99174316 421.54720703 533.48788086 420.68359375 532.96875 C419.9558374 532.52595703 419.22808105 532.08316406 418.47827148 531.62695312 C414.60605749 529.72810268 412.42416204 531.14478593 409.00390625 533.1875 Z M608.7578125 669.75 C607.96173584 670.20858398 607.16565918 670.66716797 606.34545898 671.13964844 C605.46833252 671.65043945 604.59120605 672.16123047 603.6875 672.6875 C601.76445205 673.79709883 599.84126796 674.90646175 597.91796875 676.015625 C596.37181885 676.90991211 596.37181885 676.90991211 594.79443359 677.82226562 C589.79175201 680.70944551 584.77468211 683.57132671 579.75799561 686.43408203 C576.77418545 688.13716293 573.79145135 689.8421265 570.80859375 691.546875 C569.5974985 692.23894105 568.38639824 692.93099835 567.17529297 693.62304688 C566.27795441 694.13581177 566.27795441 694.13581177 565.36248779 694.65893555 C420.06249999 777.6875 420.06249999 777.6875 418.31254578 778.68746948 C417.14572151 779.35422911 415.97890226 780.0209975 414.81208801 780.68777466 C411.89787354 782.35309088 408.98357258 784.01825537 406.0690918 785.68310547 C400.78974336 788.69904606 395.51106056 791.71612341 390.23556519 794.73880005 C387.28246984 796.4307784 384.32887011 798.12187464 381.375 799.8125 C380.79399536 800.14505798 380.21299072 800.47761597 379.61437988 800.82025146 C371.37464849 805.53419898 363.10453158 810.19117995 354.8125 814.8125 C345.66804429 819.90964598 336.60890908 825.13748746 327.58105469 830.43798828 C319.42131504 835.21673087 311.18041893 839.83926686 302.91796875 844.4375 C295.74896305 848.43714452 288.64157237 852.53098044 281.5625 856.6875 C273.44831089 861.45179452 265.28446213 866.11171594 257.0625 870.6875 C244.79530372 877.51559532 232.64775702 884.54248328 220.5625 891.6875 C219.70093701 892.04114278 218.83937403 892.39478556 217.95170307 892.75914478 C215.17238554 894.56713773 215.17238554 894.56713773 214.94726086 898.30505657 C214.92618673 899.85148377 214.9330967 901.39843299 214.96122742 902.94474792 C214.95695529 903.79669009 214.95268317 904.64863226 214.94828159 905.52639085 C214.94002051 908.39206439 214.9675875 911.25628665 214.99487305 914.12182617 C214.99628284 916.17150335 214.99549288 918.22118306 214.99266052 920.27085876 C214.99122231 925.84510334 215.02067795 931.41881308 215.05553031 936.99293303 C215.0867262 942.81454131 215.08971921 948.63616101 215.09565735 954.45783997 C215.11121569 965.4863909 215.15227121 976.51469486 215.2024048 987.54313689 C215.25823626 1000.09674171 215.28576918 1012.65035814 215.31088197 1025.20405614 C215.36318522 1051.03200784 215.45116627 1076.8597401 215.5625 1102.6875 C217.80956828 1101.57095076 220.05586957 1100.45290273 222.30175781 1099.33398438 C222.93453644 1099.01975525 223.56731506 1098.70552612 224.2192688 1098.3817749 C228.69716711 1096.14884394 233.03842065 1093.78407134 237.3125 1091.1875 C238.75843061 1090.32437399 240.20509597 1089.46247812 241.65234375 1088.6015625 C242.43077637 1088.13782227 243.20920898 1087.67408203 244.01123047 1087.19628906 C248.94327141 1084.2795414 253.91051162 1081.42354866 258.875 1078.5625 C259.97473145 1077.92836182 261.07446289 1077.29422363 262.20751953 1076.64086914 C270.94633612 1071.60716512 279.70421014 1066.6072631 288.4647522 1061.61151123 C296.52348741 1057.01447775 304.55586382 1052.37473496 312.5625 1047.6875 C321.15772672 1042.6556931 329.7856213 1037.68360928 338.4375 1032.75 C347.53329987 1027.56307574 356.61962263 1022.36068494 365.6875 1017.125 C366.75355469 1016.50947266 367.81960938 1015.89394531 368.91796875 1015.25976562 C372.13307523 1013.40279806 375.34785378 1011.54526421 378.5625 1009.6875 C392.51094368 1001.62660696 406.47253888 993.59040574 420.46722412 985.61013794 C428.52513212 981.01355777 436.55667786 976.3742584 444.5625 971.6875 C453.15772672 966.6556931 461.7856213 961.68360928 470.4375 956.75 C479.53329987 951.56307574 488.61962263 946.36068494 497.6875 941.125 C499.28658203 940.20170898 499.28658203 940.20170898 500.91796875 939.25976562 C504.13307523 937.40279806 507.34785378 935.54526421 510.5625 933.6875 C523.32861304 926.30988324 536.10052224 918.94348821 548.90881348 911.63934326 C558.19382992 906.34431587 567.4582105 901.01684807 576.6875 895.625 C589.28507928 888.26536158 601.92499534 880.97836807 614.5625 873.6875 C614.5625 805.7075 614.5625 737.7275 614.5625 667.6875 C612.03404246 667.6875 610.94390646 668.48187182 608.7578125 669.75 Z " fill="#FF2D20" transform="translate(408.4375,135.3125)"/>
</svg>
